/* XPM */
static char *c5a57ed43f0e4e1ed566ebe097a78c6esxnmLG2LbbHQEV4n[] = {
/* columns rows colors chars-per-pixel */
"32 32 11 1 ",
"  c None",
". c #372A18",
"X c #3F2F18",
"o c #432C0C",
"O c #303043",
"+ c #11465C",
"@ c #734C4C",
"# c #724C73",
"$ c #5E854D",
"% c #556690",
"& c #3196C0",
/* pixels */
"                                ",
"                                ",
"      OOOO            OOOO      ",
"    OO$$$$OO        OO%%%%OO    ",
"   O$$$OO$$$O      O%%%OO%%%O   ",
"   O$OOo.OO$O      O%OOo.OO%O   ",
"  O$O.oXoo.O$O    O%O.oXoo.O%O  ",
"  O$OX.o..oO$O    O%OX.o..oO%O  ",
" O$$$OOOOOO$$$O  O%%%OOOOOO%%%O ",
" O$$$$$$$$$$$$O  O%%%%%%%%%%%%O ",
"O$$$&&$&&&&$$$$OO%%%&&%&&&&%%%%O",
"O$$$$$&&&+&&$$$OO%%%%%&&&+&&%%%O",
"O$$$&&$&&&&$$$$OO%%%&&%&&&&%%%%O",
" OO$$$$$$$$$$OO  OO%%%%%%%%%%OO ",
"   OO$$$$$$OO      OO%%%%%%OO   ",
"     OOOOOO          OOOOOO     ",
"                                ",
"      OOOO            OOOO      ",
"    OO####OO        OO@@@@OO    ",
"   O###OO###O      O@@@OO@@@O   ",
"   O#OOo.OO#O      O@OOo.OO@O   ",
"  O#O.oXoo.O#O    O@O.oXoo.O@O  ",
"  O#OX.o..oO#O    O@OX.o..oO@O  ",
" O###OOOOOO###O  O@@@OOOOOO@@@O ",
" O############O  O@@@@@@@@@@@@O ",
"O###&&#&&&&####OO@@@&&@&&&&@@@@O",
"O#####&&&+&&###OO@@@@@&&&+&&@@@O",
"O###&&#&&&&####OO@@@&&@&&&&@@@@O",
" OO##########OO  OO@@@@@@@@@@OO ",
"   OO######OO      OO@@@@@@OO   ",
"     OOOOOO          OOOOOO     ",
"                                "
};
