/* XPM */
static char *_1d8300ae7f043f0e5e4de2d5b08cb39QXZ2N8kLHEPChAqR[] = {
/* columns rows colors chars-per-pixel */
"64 64 126 2 ",
"   c None",
".  c #070F1F",
"X  c #10283E",
"o  c #5C483E",
"O  c #0E304D",
"+  c gray34",
"@  c #67554F",
"#  c #987F73",
"$  c #948173",
"%  c #9D8980",
"&  c #9E8A81",
"*  c #AE9C92",
"=  c #BBA8A1",
"-  c #BAA9A2",
";  c #C3B5AA",
":  c #C2B4AB",
">  c #CEBDB6",
",  c #C3BEB8",
"<  c #D3CAC5",
"1  c #D8C9C2",
"2  c #DDD5CB",
"3  c #DED6CC",
"4  c #DFD8CE",
"5  c #E1D7CE",
"6  c #E0D8CE",
"7  c #E0D7D2",
"8  c #E2DAD0",
"9  c #E1D8D3",
"0  c #E5D8D0",
"q  c #E5DBD1",
"w  c #E4DCD2",
"e  c #E5DDD2",
"r  c #E7DDD4",
"t  c #E6DED4",
"y  c #EADED2",
"u  c #EEDDD3",
"i  c #E8DED4",
"p  c #E9DFD5",
"a  c #EBDED5",
"s  c #E7E3D7",
"d  c #E8E0D6",
"f  c #E9E1D6",
"g  c #EAE0D6",
"h  c #EBE1D7",
"j  c #E8E2D6",
"k  c #E9E3D7",
"l  c #EAE2D7",
"z  c #EEE2D6",
"x  c #EFE3D7",
"c  c #E7E4DB",
"v  c #E7E2DC",
"b  c #EBE1D8",
"n  c #E9E2D8",
"m  c #EAE2D8",
"M  c #EBE3D8",
"N  c #EBE3D9",
"B  c #E9E0DB",
"V  c #E8E1DB",
"C  c #EAE1DA",
"Z  c #EBE2DB",
"A  c #EEE1D8",
"S  c #ECE2D9",
"D  c #ECE1DB",
"F  c #EDE3DA",
"G  c #E8E4D9",
"H  c #E9E5DA",
"J  c #E8E4DB",
"K  c #ECE4DA",
"L  c #ECE5DB",
"P  c #EDE5DB",
"I  c #EAE1DC",
"U  c #E8E3DD",
"Y  c #EBE2DD",
"T  c #EAE3DD",
"R  c #ECE3DC",
"E  c #EEE3DD",
"W  c #ECE3DE",
"Q  c #E8E5DE",
"!  c #EAE5DF",
"~  c #EDE4DD",
"^  c #EDE4DF",
"/  c #ECE5DF",
"(  c #EFE8DE",
")  c #F2E6DA",
"_  c #F2E5DC",
"`  c #F0E6DD",
"'  c #F1E7DD",
"]  c #F3E6DE",
"[  c #F0E8DB",
"{  c #F0E8DE",
"}  c #F2E8DE",
"|  c #F7E9DE",
" . c #E1E1E1",
".. c #EBE6E0",
"X. c #EFEAE4",
"o. c #EBEAE8",
"O. c #F3EBE0",
"+. c #F1E8E3",
"@. c #F2E9E2",
"#. c #F1EDE1",
"$. c #F1EDE2",
"%. c #F0ECE3",
"&. c #F4ECE2",
"*. c #F5EDE3",
"=. c #F2E9E4",
"-. c #F2EBE5",
";. c #F4EBE6",
":. c #F1EDE4",
">. c #F3ECE4",
",. c #F2EEE5",
"<. c #F3ECE6",
"1. c #F2EFE6",
"2. c #F5EEE4",
"3. c #F7EFE5",
"4. c #F5ECE7",
"5. c #F8EBE2",
"6. c #F3EEE8",
"7. c #F6EDE8",
"8. c #F5EEE8",
"9. c #F7EEE9",
"0. c #F5EDEA",
"q. c #F2F1EF",
"w. c #FBF3E9",
"e. c #EDF4FF",
"r. c #FFFCF2",
"t. c white",
/* pixels */
"                                                                                                                                ",
"                                                                                                                                ",
"                                                                                                                                ",
"                                                                                                                                ",
"                                                                                                                                ",
"                                                                                                                                ",
"                                                                                                                                ",
"                                                                                                                                ",
"                                                                                                                                ",
"                                                                                                                                ",
"                                                                                                                                ",
"                                                                                                                                ",
"                                                                                                                                ",
"                                                                                                                                ",
"                                                                                                                                ",
"                                                                                                                                ",
"                                                                                                                                ",
"                                                                                                                                ",
"                                                                                                                                ",
"                                          . . . . . . . . . . . . . . . . . . . . . . . .                                       ",
"                                        . Z ~ Z R e.e.e.e.e.e.e.e.e.e.S Z Z Z Z Z Z Z u = .                                     ",
"                              . . . . . = U ! U U e.e.e.t.t.t.e.e.e.e.H U U U U U v U ` = = . . . .                             ",
"                          . . = = = = = = e.e.e.e.t.t.t.t.t.e.t.t.e.e.e.e.e.e.e.e.e.e.e.= = = = = = . . .                       ",
"                        . = = = = e.e.e.e.e.e.e.e.t.e.e.e.e.e.e.e.e.! [ q.@ e.e.t.t.t.t.e.e.e.e.e.= = = = . +                   ",
"                        . = = e.e.e.e.@ @ e.e.e.e.e.e.e.e.e.e.{ &.( { @ @ e.e.e.e.e.t.t.t.t.e.e.e.e.e.Z = = . .                 ",
"                      . = = = e.e.e.@ @ @ e.e.e.<.;.=.;.4.;.+.;.7.$.@ @ @ &.e.e.e.e.e.e.t.t.e.e.e.e.e.e. .= = =                 ",
"                    . = = o.e.e.e.e.c @ @ U R U U U Z U 0 @ @ @ @ @ @ @ Z U U U Z Z U Z K Z l @ @ @ < e.e.e.= = .               ",
"                  . = = = e.e.e.e.7.<.@ @ @ 7.;.;.<.o o K z y z ) @ @ @ @ @ @ @ @ @ &.+.4.;.$.@ @ <.6.e.e.e.S = .               ",
"                  . = = ` e.e.e.=.4.@ @ @ @ @ @ @ e y y Z Z p # # # # # * @ @ @ # # @ @ <.# $.@ +.&.X.e.e.e.e.= .               ",
"                . = = = e.e.e.$.+.4.@ @ @ l S S S Z l Z # # # # # # # # # # # # # # # # 5.# @ @ <.;.+.<.e.e.e.= = .             ",
"                . = = = e.e.e.@ @ @ @ @ @ 0 p l l # # # # # # # # # # # # # # # # # # # # # @ @ +.7.w.` t.e.e.= = .             ",
"                . = = = e.e.e.e.@ @ @ @ @ # # # # # # # # # # # # # # # # # # # # # # # # # # # | @ @ r.t.e.e.e.= .             ",
"                . = = = = e.e.e.e.@ @ @ @ $ % % % % % % @ @ @ @ @ # # # # # # # # # # # # # # # @ @ e.e.t.e.e.e.= .             ",
"                . = = = = e.e.e.e.@ @ @ # @ @ @ @ @ @ @ @ @ @ @ @ @ @ @ @ @ @ @ @ # # # # # # > @ e.e.t.e.e.e.S = .             ",
"                . = = = = = e.e.e.e.e.e.e.e.# @ @ @ # # # e.e.e.e.e.# # e.e.@ @ @ @ @ @ # @ @ @ e.e.e.e.e.e.e.= = .             ",
"                . = = = = = , e.e.e.e.e.e.e.e.e.e.e.e.e.e.e.e.e.e.e.e.e.e.e.e.e.e.# @ @ @ @ @ @ e.e.e.e.e.` = = = .             ",
"                . X = = = = = = e.e.e.e.e.e.e.e.e.e.e.e.e.e.e.e.e.e.e.e.e.e.e.e.e.e.e.e.e.e.e.e.e.= = = p Z t = = .             ",
"                . X = = = = = = = 0 e.e.e.e.e.e.e.e.e.e.e.e.e.e.e.e.e.e.e.e.e.e.e.e.e.e.e.e.e.e.= Z l l s H = = = .             ",
"                  X X = = = = = = U S S S S R S S S e.e.e.e.e.e.e.e.e.e.e.e.e.e.e.e.e.e.e.e.e.= H Z l Z K = = = = .             ",
"                  X X = = = = = = = U ~ U U U ~ U Z v U ! U e.e.~ ! ..U U ! K e.e.e.! U ....U Z Z U Z Z = = = = X .             ",
"                  X X O O = = = = = = 1 4 7 7 7 7 7 8 7 7 7 8 3 e 7 7 7 7 7 7 2 6 5 : : t 6 7 = = = = = = = = = X .             ",
"                  X X X X X X X O O O = = = = = = = = = = = = = = = = = = = = = = = = = = = = = O O O O O O X X X .             ",
"                    X X X X X X X O O O O = = = = = = = = = = = = = = = = = = = = = = = O O O O O O O O X X X X X               ",
"                        X X X X X X X X O O O O X X X X X X X X X O O O O X X X X X X X O O O O X X X X X X X X                 ",
"                            X X X X X X X X X X X X X X X X X X X X X X X X X X X X X X X X X X X X X X X X X                   ",
"                                X X X X X X X X X X X X X X X X X X X X X X X X X X X X X X X X X X                             ",
"                                          X X X X X X X X X X X X X X X X X X X X X X                                           ",
"                                                                                                                                ",
"                                                                                                                                ",
"                                                                                                                                ",
"                                                                                                                                ",
"                                                                                                                                ",
"                                                                                                                                ",
"                                                                                                                                ",
"                                                                                                                                ",
"                                                                                                                                ",
"                                                                                                                                ",
"                                                                                                                                ",
"                                                                                                                                ",
"                                                                                                                                ",
"                                                                                                                                ",
"                                                                                                                                ",
"                                                                                                                                ",
"                                                                                                                                "
};
