/* XPM */
static char *small[] = {
/* columns rows colors chars-per-pixel */
"32 32 4 1",
"  c black",
". c #FF7043",
"X c #CFD8DC",
"o c gray100",
/* pixels */
"                                ",
"                                ",
"        XXXXXXXX                ",
"        XXXXXXXX                ",
"      XXXXXXXXXXXX              ",
"      XXXXXXXXXXXX              ",
"      XX  XXXX  XX              ",
"      XX  XXXX  XX              ",
"      XXXX....XXXX              ",
"      XXXX....XXXX              ",
"        XXXXXXXX                ",
"        XXXXXXXX                ",
"          XXXX                  ",
"          XXXX                  ",
"        XXXXXXXXXX              ",
"        XXXXXXXXXX              ",
"      XXXXXXXXXXoo              ",
"      XXXXXXXXXXoo              ",
"  XXXXXXXXXXooooooXX    XX      ",
"  XXXXXXXXXXooooooXX    XX      ",
"        XXXXXXXXXXXX  XXXX      ",
"        XXXXXXXXXXXX  XXXX      ",
"          XXXXXXXXXXXXXXXX      ",
"          XXXXXXXXXXXXXXXX      ",
"          XXXXXXXXXXXXXX        ",
"          XXXXXXXXXXXXXX        ",
"            XXXXXXXXXX          ",
"            XXXXXXXXXX          ",
"                XXXX            ",
"                XXXX            ",
"                                ",
"                                "
};
