/* XPM */
static char *sexit[] = {
/* columns rows colors chars-per-pixel */
"32 32 7 1",
"  c #0D47A1",
". c #7BC043",
"X c #0392CF",
"o c #EE4035",
"O c #F37736",
"+ c #9C27B0",
"@ c #FDF498",
/* pixels */
"oooooooooooooooooooooooooooooooo",
"oooooooooooooooooooooooooooooooo",
"ooOOOOOOOOOOOOOOOOOOOOOOOOOOOOoo",
"ooOOOOOOOOOOOOOOOOOOOOOOOOOOOOoo",
"ooOO@@@@@@@@@@@@@@@@@@@@@@@@OOoo",
"ooOO@@@@@@@@@@@@@@@@@@@@@@@@OOoo",
"ooOO@@....................@@OOoo",
"ooOO@@....................@@OOoo",
"ooOO@@..XXXXXXXXXXXXXXXX..@@OOoo",
"ooOO@@..XXXXXXXXXXXXXXXX..@@OOoo",
"ooOO@@..XX            XX..@@OOoo",
"ooOO@@..XX            XX..@@OOoo",
"ooOO@@..XX  ++++++++  XX..@@OOoo",
"ooOO@@..XX  ++++++++  XX..@@OOoo",
"ooOO@@..XX  ++oooo++  XX..@@OOoo",
"ooOO@@..XX  ++oooo++  XX..@@OOoo",
"ooOO@@..XX  ++oooo++  XX..@@OOoo",
"ooOO@@..XX  ++oooo++  XX..@@OOoo",
"ooOO@@..XX  ++++++++  XX..@@OOoo",
"ooOO@@..XX  ++++++++  XX..@@OOoo",
"ooOO@@..XX            XX..@@OOoo",
"ooOO@@..XX            XX..@@OOoo",
"ooOO@@..XXXXXXXXXXXXXXXX..@@OOoo",
"ooOO@@..XXXXXXXXXXXXXXXX..@@OOoo",
"ooOO@@....................@@OOoo",
"ooOO@@....................@@OOoo",
"ooOO@@@@@@@@@@@@@@@@@@@@@@@@OOoo",
"ooOO@@@@@@@@@@@@@@@@@@@@@@@@OOoo",
"ooOOOOOOOOOOOOOOOOOOOOOOOOOOOOoo",
"ooOOOOOOOOOOOOOOOOOOOOOOOOOOOOoo",
"oooooooooooooooooooooooooooooooo",
"oooooooooooooooooooooooooooooooo"
};
