/* XPM */
static char *f71efeaae4c3432fa0da502c9b7b72b6EvWEo2szO5GL6lHz[] = {
/* columns rows colors chars-per-pixel */
"224 32 7 1 ",
"  c None",
". c black",
"X c #252629",
"o c #343434",
"O c #766F46",
"+ c #B1A561",
"@ c #E9DA8A",
/* pixels */
"                                                                                                                                                                                                                                ",
"                                                                                                                                                                                                                                ",
"                                                                                                                                                                                                                                ",
"                                                                                                                                                                                                                                ",
"                                                                                                                                                                                                                                ",
"                                                                                                                                                                                                                                ",
"                                                                                                                                                                                                                                ",
"                 .      .                        .      .                                                                                                                                                                       ",
"                ...    ...                      ...    ...                       .      .                        .      .                                                                                        .      .       ",
"       .       .....  .....                    .....  .....                     ...    ...                      ...    ...                       .      .                        .      .                       ...    ...      ",
"      .X.      .....  .....          .         .....  .....       .            .....  .....                    .....  .....                     ...    ...        .             ...    ...           .         .....  .....     ",
"      .X.      ............         .X.        ............      .X.           .....  .....                    .....  .....                    .....  .....      .X.           .....  .....         .X.        .....  .....     ",
"      .X.      ............         .X.        ............      .X.           ............                    ............                    .....  .....      .X.           .....  .....         .X.        ............     ",
"     .XX.     .............         .X.       .............      .XX.          ............                    ............                    ............      .XX.          ............         .X.        ............     ",
"    .XX.      ......@....@..        .X.       ......@....@..      .XX.        .............        .          .............        .           ............       .XX.         ............         .X.       .............     ",
"    .X.       ......+....+..        .X.       ......+....+..       .X.        ......@....@..      .X.         ......@....@..      .X.         .............        .X.        .............         .X.       ......@....@..    ",
"    .X.       ..............        .X.       ..............       .XX.       ......+....+..     .XXX.        ......+....+..     .XXX.        ......@....@..       .XX.       ......@....@..        .X.       ......+....+..    ",
"    .XX.       .XXXXX....XX.        .XX.       .XXXXX....XX.        .X.       ..............    .XX.XX.       ..............    .XX.XX.       ......+....+..        .X.       ......+....+..        .X.       ..............    ",
"    .XXX.......o...XXX..XX.         .XXX.......o...XXX..XX.         .XX.       .XXXXX....XX.    .X. .XX.       .XXXXX....XX.    .X. .XX.      ..............        .XX.      ..............        .XX.       .XXXXX....XX.    ",
"    .XXXXXXXXXXoo.XXXXXXX.          .XXXXXXXXXXoo.XXXXXXX.          .XXX.......o...XXX..XX.      .  .XXX.......o...XXX..XX.      .  .XXX........XXXXX....XX.        .XXX........XXXXX....XX.        .XXX.......o...XXX..XX.     ",
"     .XXXXXXXXXXoo.......            .XXXXXXXXXXoo.......           .XXXXXXXXXXoo.XXXXXXX.          .XXXXXXXXXXoo.XXXXXXX.          .XXXXXXXXX.o...XXX..XX.         .XXXXXXXXX.o...XXX..XX.         .XXXXXXXXXXoo.XXXXXXX.      ",
"     .XXXXXXXXXXXooooooo             .XXXXXXXXXXXooooooo             .XXXXXXXXXXoo.......            .XXXXXXXXXXoo.......            .XXXXXXXXXoo.XXXXXXX.           .XXXXXXXXXoo.XXXXXXX.           .XXXXXXXXXXoo.......       ",
"      ..XXXXXXXXXXXXOXX.              ..XXXXXXXXXXXXOXX.             .XXXXXXXXXXXooooooo             .XXXXXXXXXXXooooooo             .XXXXXXXXXXoo.......            .XXXXXXXXXXoo.......            .XXXXXXXXXXXooooooo        ",
"       .XXXXXXXXXXXXXXX.               .XXXXXXXXXXXXXXX.              ..XXXXXXXXXXXXOXX.              ..XXXXXXXXXXXXOXX.              ..XXXXXXXXXXXXOXX.              ..XXXXXXXXXXXXOXX.              ..XXXXXXXXXXXXOXX.        ",
"       .XXXXXXXXXXXXXXX.               .XXXXXXXXXXXXXXX.               .XXXXXXXXXXXXXXX.               .XXXXXXXXXXXXXXX.               .XXXXXXXXXXXXXXX.               .XXXXXXXXXXXXXXX.               .XXXXXXXXXXXXXXX.        ",
"       .XXXXXXXXXXXXXX.                .XXXXXXXXXXXXXX.                .XXXXXXXXXXXXXXX.               .XXXXXXXXXXXXXXX.               .XXXXXXXXXXXXXXX.               .XXXXXXXXXXXXXXX.               .XXXXXXXXXXXXXXX.        ",
"       .XXX.XXX.XX.XXX.                .XXX.XXX.XX.XXX.                .XXXXXXXXXXXXXX.                .XXXXXXXXXXXXXX.                .XXXXXXXXXXXXXX.                .XXXXXXXXXXXXXX.                .XXXXXXXXXXXXXX.         ",
"       .XXX.XXX.XX.XXX.                .XXX.XXX.XX.XXX.                .XXX.XXX.XX.XXX.                .XXX.XXX.XX.XXX.                .XXX.XXX.XX.XXX.                .XXX.XXX.XX.XXX.                .XXX.XXX.XX.XXX.         ",
"       .XX..XX..XX..XX.                .XX..XX..XX..XX.                .XX..XX..XX..XX.                .XX..XX..XX..XX.                .XX..XX..XX..XX.                .XX..XX..XX..XX.                .XX..XX..XX..XX.         ",
"        ... ... ... ..                  ... ... ... ..                  ... ... ... ..                  ... ... ... ..                  ... ... ... ..                  ... ... ... ..                  ... ... ... ..          ",
"                                                                                                                                                                                                                                ",
"                                                                                                                                                                                                                                "
};
