/* XPM */
static char *_6c7f5cf2c874997be6ff53205696776Gz8t8ZqRRByZLQhb[] = {
/* columns rows colors chars-per-pixel */
"224 32 9 1 ",
"  c None",
". c black",
"X c #11121E",
"o c #161825",
"O c #252629",
"+ c #343434",
"@ c #766F46",
"# c #B1A561",
"$ c #E9DA8A",
/* pixels */
"                                                                                                                                                                                                                                ",
"                                                                                                                                                                                                                                ",
"                                                                                                                                                                                                                                ",
"                                                                                                                                                                                                                                ",
"                                                                                                                                                                                                                                ",
"                                                                                                                                                                                                                                ",
"                                                                                                                                                                                                                                ",
"                 X      X                        X      X                                                                                                                                                                       ",
"                XoX    XoX                      XoX    XoX                       X      X                        X      X                                                                                        X      X       ",
"       .       XoooX  XoooX                    XoooX  XoooX                     XoX    XoX                      XoX    XoX                       X      X                        X      X                       XoX    XoX      ",
"      .O.      XoooX  XoooX          .         XoooX  XoooX       .            XoooX  XoooX                    XoooX  XoooX                     XoX    XoX        .             XoX    XoX           .         XoooX  XoooX     ",
"      .O.      XooooXXooooX         .O.        XooooXXooooX      .O.           XoooX  XoooX                    XoooX  XoooX                    XoooX  XoooX      .O.           XoooX  XoooX         .O.        XoooX  XoooX     ",
"      .O.      XooooooooooX         .O.        XooooooooooX      .O.           XooooXXooooX                    XooooXXooooX                    XoooX  XoooX      .O.           XoooX  XoooX         .O.        XooooXXooooX     ",
"     .OO.     XoooooooooooX         .O.       XoooooooooooX      .OO.          XooooooooooX                    XooooooooooX                    XooooXXooooX      .OO.          XooooXXooooX         .O.        XooooooooooX     ",
"    .OO.      Xooooo$oooo$oX        .O.       Xooooo$oooo$oX      .OO.        XoooooooooooX        .          XoooooooooooX        .           XooooooooooX       .OO.         XooooooooooX         .O.       XoooooooooooX     ",
"    .O.       Xooooo#oooo#oX        .O.       Xooooo#oooo#oX       .O.        Xooooo$oooo$oX      .O.         Xooooo$oooo$oX      .O.         XoooooooooooX        .O.        XoooooooooooX         .O.       Xooooo$oooo$oX    ",
"    .O.       XXXXXXXooooXXX        .O.       XXXXXXXooooXXX       .OO.       Xooooo#oooo#oX     .OOO.        Xooooo#oooo#oX     .OOO.        Xooooo$oooo$oX       .OO.       Xooooo$oooo$oX        .O.       Xooooo#oooo#oX    ",
"    .OO.       XOOOOOXooXOOX        .OO.       XOOOOOXooXOOX        .O.       XXXXXXXooooXXX    .OO.OO.       XXXXXXXooooXXX    .OO.OO.       Xooooo#oooo#oX        .O.       Xooooo#oooo#oX        .O.       XXXXXXXooooXXX    ",
"    .OOO.......+...OOOXXOO.         .OOO.......+...OOOXXOO.         .OO.       XOOOOOXooXOOX    .O. .OO.       XOOOOOXooXOOX    .O. .OO.      XXXXXXXooooXXX        .OO.      XXXXXXXooooXXX        .OO.       XOOOOOXooXOOX    ",
"    .OOOOOOOOOO++.OOOOOOO.          .OOOOOOOOOO++.OOOOOOO.          .OOO.......+...OOOXXOO.      .  .OOO.......+...OOOXXOO.      .  .OOO.......XOOOOOXooXOOX        .OOO.......XOOOOOXooXOOX        .OOO.......+...OOOXXOO.     ",
"     .OOOOOOOOOO++.......            .OOOOOOOOOO++.......           .OOOOOOOOOO++.OOOOOOO.          .OOOOOOOOOO++.OOOOOOO.          .OOOOOOOOO.+...OOOXXOO.         .OOOOOOOOO.+...OOOXXOO.         .OOOOOOOOOO++.OOOOOOO.      ",
"     .OOOOOOOOOOO+++++++             .OOOOOOOOOOO+++++++             .OOOOOOOOOO++.......            .OOOOOOOOOO++.......            .OOOOOOOOO++.OOOOOOO.           .OOOOOOOOO++.OOOOOOO.           .OOOOOOOOOO++.......       ",
"      ..OOOOOOOOOOOO@OO.              ..OOOOOOOOOOOO@OO.             .OOOOOOOOOOO+++++++             .OOOOOOOOOOO+++++++             .OOOOOOOOOO++.......            .OOOOOOOOOO++.......            .OOOOOOOOOOO+++++++        ",
"       .OOOOOOOOOOOOOOO.               .OOOOOOOOOOOOOOO.              ..OOOOOOOOOOOO@OO.              ..OOOOOOOOOOOO@OO.              ..OOOOOOOOOOOO@OO.              ..OOOOOOOOOOOO@OO.              ..OOOOOOOOOOOO@OO.        ",
"       .OOOOOOOOOOOOOOO.               .OOOOOOOOOOOOOOO.               .OOOOOOOOOOOOOOO.               .OOOOOOOOOOOOOOO.               .OOOOOOOOOOOOOOO.               .OOOOOOOOOOOOOOO.               .OOOOOOOOOOOOOOO.        ",
"       .OOOOOOOOOOOOOO.                .OOOOOOOOOOOOOO.                .OOOOOOOOOOOOOOO.               .OOOOOOOOOOOOOOO.               .OOOOOOOOOOOOOOO.               .OOOOOOOOOOOOOOO.               .OOOOOOOOOOOOOOO.        ",
"       .OOO.OOO.OO.OOO.                .OOO.OOO.OO.OOO.                .OOOOOOOOOOOOOO.                .OOOOOOOOOOOOOO.                .OOOOOOOOOOOOOO.                .OOOOOOOOOOOOOO.                .OOOOOOOOOOOOOO.         ",
"       .OOO.OOO.OO.OOO.                .OOO.OOO.OO.OOO.                .OOO.OOO.OO.OOO.                .OOO.OOO.OO.OOO.                .OOO.OOO.OO.OOO.                .OOO.OOO.OO.OOO.                .OOO.OOO.OO.OOO.         ",
"       .OO..OO..OO..OO.                .OO..OO..OO..OO.                .OO..OO..OO..OO.                .OO..OO..OO..OO.                .OO..OO..OO..OO.                .OO..OO..OO..OO.                .OO..OO..OO..OO.         ",
"        ... ... ... ..                  ... ... ... ..                  ... ... ... ..                  ... ... ... ..                  ... ... ... ..                  ... ... ... ..                  ... ... ... ..          ",
"                                                                                                                                                                                                                                ",
"                                                                                                                                                                                                                                "
};
