/* XPM */
static char *_806eb9a01674f93f33afe112c062dc20D8JE2544gVDVxsX[] = {
/* columns rows colors chars-per-pixel */
"416 32 7 1 ",
"  c None",
". c black",
"X c #252629",
"o c #343434",
"O c #766F46",
"+ c #B1A561",
"@ c #E9DA8A",
/* pixels */
"                                                                                                                                                                                ...    ...                                                                                                                                                                                                                                      ",
"                                                                                                                                                                               .....  .....                                                                                                                                                                                                                                     ",
"                                                                                                                                                                               .....  .....          .                                                                                                                                                                                                                          ",
"                                                                                                                                                 .      .                      ............         .X.          .      .                                                                                                                                                                                                       ",
"                                                                                                                                                ...    ...                     ............         .X.         ...    ...                                                                                                                                                                                                      ",
"                                                                                                                                               .....  .....              .    .............         .X.        .....  .....         .                                                                                                                                                                                           ",
"                                                                                                                 .      .                      .....  .....             .X.   ......@....@..       .XX.        .....  .....        .X.                                                                                                                                                                                          ",
"                                                                                                                ...    ...                     ............             .X.   ......+....+..       .XX.        ............        .X.                              .                                                                                                                                                           ",
"                                                                                                               .....  .....                    ............             .X.   ..............       .X.         ............        .X.           .      .          .X.                                                                                                                                                          ",
"                 .      .                                                                                      .....  .....               .   .............            .XX.   ..XXXXX....XX.       .X.   .... .............        .X.          ...    ...         .X.                                                                                                                                                          ",
"                ...    ...                                                                                     ............              .X.  ......@....@..           .XX.   .o...XXX..XX.        .XX. .XXXX.......@....@..       .X.         .....  .....        .X.                                                                                                                                                          ",
"       .       .....  .....                                                                                    ............              .X.  ......+....+..           .X.    Xoo.XXXXXXX.         .XX..XXXXXX......+....+..       .X.         .....  .....        .X.           .      .                                                                                                                                       ",
"      .X.      .....  .....                                                                               .   .............              .X.  ..............           .X.    XXoo.......          .XXXXXXXXXX..............       .X.   ..    ............        .X.          ...    ...                                                                                                                       .      .       ",
"      .X.      ............                                                                              .X.  ......@....@..            .XX.  ..XXXXX....XX.           .XX.  .XXXooooooo.           .XXXXXXXXX..XXXXX....XX.       .XX. .XX.   ............        .X.         .....  .....         .            .      .                                                                                       ...    ...      ",
"      .X.      ............                       .      .                                               .X.  ......+....+..           .XX.   .o...XXX..XX.            .XXX..XXXXXXXOXXXX..         .XXXXXXXXX.o...XXX..XX.        .XX..XXXX. .............        .X.         .....  .....        .X.          ...    ...                       .      .                                              .       .....  .....     ",
"     .XX.     .............            .         ...    ...                                              .X.  ..............           .X.    Xoo.XXXXXXX.             .XXXXXXXXXXXXXXXXXXX.         ..XXXXXXXXoo.XXXXXXX.         .XXXXXXXXX.......@....@..       .X.   ..    ............        .X.         .....  .....           .         ...    ...                       .      .             .X.      .....  .....     ",
"    .XX.      ......@....@..          .X.       .....  .....                      .      .              .XX.  ..XXXXX....XX.           .X.    XXoo.......               .XXXXXXXXXXXXXXXXXX.          .XXX.XXXXXoo.......           .XXXXXXXXX......+....+..       .XX. .XX.   ............        .X.         .....  .....          .X.       .....  .....           .         ...    ...            .X.      ............     ",
"    .X.       ......+....+..          .X.       .....  .....           .         ...    ...            .XX.   .o...XXX..XX.            .XX.  .XXXooooooo.               .XXXXXXXXXXXXX.....           .XXX.XXXXXXooooooo            .XXXXXXXXX..............       .XX..XXXX. .............        .X.         ............          .X.       .....  .....          .X.       .....  .....           .X.      ............     ",
"    .X.       ..............          .X.       ............          .X.       .....  .....           .X.    Xoo.XXXXXXX.             .XXX..XXXXXXXOXXXX..              ..XXXXXXXXX..                 ... ....XXXXXOXX.             ..XXXXXXX..XXXXX....XX.       .XXXXXXXXX.......@....@..       .X.         ............          .X.       ............          .X.       .....  .....          .XX.     .............     ",
"    .XX.       .XXXXX....XX.         .XX.       ............          .X.       .....  .....           .X.    XXoo.......              .XXXXXXXXXXXXXXXXXXX.             ..XXXXXXXX.                          .XX..XX..               .XXX.XXX.o...XXX..XX.         .XXXXXXXXX......+....+..       .X.   .... .............         .XX.       ............          .X.       ............         .XX.      ......@....@..    ",
"    .XXX.......o...XXX..XX.         .XX.       .............          .X.       ............           .XX.  .XXXooooooo.               .XXXXXXXXXXXXXXXXXX.             .XXXXXXX..                            ... ..                 .XXX.XXXXoo.XXXXXXX.          .XXXXXXXXX..............       .X.. .XXXX.......@....@..       .XX.       .............         .XX.       ............         .X.       ......+....+..    ",
"    .XXXXXXXXXXoo.XXXXXXX.          .X.        ......@....@..        .XX.       ............           .XXX..XXXXXXXOXXXX..             .XXXXXXXXXXXXX.....              .XX.XXX.                                                      ... .XXXXoo.......            ..XXXXXXX..XXXXX....XX.       .XX..XXXXXX......+....+..       .X.        ......@....@..       .XX.       .............         .X.       ..............    ",
"     .XXXXXXXXXXoo.......           .X.        ......+....+..       .XX.       .............           .XXXXXXXXXXXXXXXXXXX.             ..XXXXXXXXX..                  .XXX.XX.                                                           .XXXXXooooooo              .XXX.XXX.o...XXX..XX.        .XXXXXXXXXX..............       .X.   .... ......+....+..       .X.        ......@....@..        .XX.       .XXXXX....XX.    ",
"     .XXXXXXXXXXXooooooo            .XX. ....  ..............       .X.        ......@....@..           .XXXXXXXXXXXXXXXXXX.             ..XXXXXXXX.                    .XX.XX.                                                             ...XXXXXOXX.              .XXX.XXXXoo.XXXXXXX.          .XXXXXXXXX..XXXXX....XX.       .XX. .XXXX...............       .X.   .... ......+....+..        .XXX.......o...XXX..XX.     ",
"      ..XXXXXXXXXXXXOXX.            .XXX.XXXX.  .XXXXX....XX.       .X.        ......+....+..           .XXXXXXXXXXXXX.....              .XXXXXXX..                      .....                                                                .XX..XX..                ... .XXXXoo.......           .XXXXXXXXX.o...XXX..XX.        .XX..XXXXXX..XXXXX....XX.       .XX. .XXXX...............        .XXXXXXXXXXoo.XXXXXXX.      ",
"       .XXXXXXXXXXXXXXX.            .XXXXXXXXX..o...XXX..XX.        .XX.       ..............            ..XXXXXXXXX..                   .XX.XXX.                                                                                              ... ..                      .XXXXXooooooo             ..XXXXXXXXoo.XXXXXXX.         .XXXXXXXXXX.o...XXX..XX.        .XX..XXXXXX..XXXXX....XX.         .XXXXXXXXXXoo.......       ",
"       .XXXXXXXXXXXXXXX.             .XXXXXXXXXXoo.XXXXXXX.         .XXX.....   .XXXXX....XX.            ..XXXXXXXX.                    .XXX.XX.                                                                                                                            ...XXXXXOXX.              .XXX.XXXXXoo.......           .XXXXXXXXXXoo.XXXXXXX.         .XXXXXXXXXX.o...XXX..XX.          .XXXXXXXXXXXooooooo        ",
"       .XXXXXXXXXXXXXX.              .XXXXXXXXXXXoo.......          .XXXXXXXX...o...XXX..XX.             .XXXXXXX..                     .XX.XX.                                                                                                                               .XX..XX..               .XXX.XXXXXXooooooo            .XXXXXXXXXXXoo.......           .XXXXXXXXXXoo.XXXXXXX.            ..XXXXXXXXXXXXOXX.        ",
"       .XXX.XXX.XX.XXX.               ..XXXXXXXXXXooooooo            .XXXXXXXXXXoo.XXXXXXX.              .XX.XXX.                        .....                                                                                                                                 ... ..                  ... ....XXXXXOXX.             ..XXXXXXXXXXooooooo            .XXXXXXXXXXXoo.......              .XXXXXXXXXXXXXXX.        ",
"       .XXX.XXX.XX.XXX.                .XXX.XXXXXXXXXOXX.            .XXXXXXXXXXXoo.......              .XXX.XX.                                                                                                                                                                                              .XX..XX..               .XXX.XXX.XXXXXOXX.             ..XXXXXXXXXXooooooo               .XXX.XXX.XX.XXX.         ",
"       .XX..XX..XX..XX.                .XXX.XXX.XX.XXX..               .XXXXXXXXXXooooooo               .XX.XX.                                                                                                                                                                                                ... ..                 .XXX.XXX XX.XXX..               .XXX.XXX.XXXXXOXX.               .XX..XX..XX..XX.         ",
"        ... ... ... ..                  ... ... ... ..                 .XXX.XXXXXXXXXOXX.                .....                                                                                                                                                                                                                         ... ... ... ..                  ... ... ... ....                 ... ... ... ..          "
};
