/* XPM */
static char *b2f0f9e18f414d46bff0dfc106ae9f0dFIJ9MzuflJEY6iqR[] = {
/* columns rows colors chars-per-pixel */
"416 32 9 1 ",
"  c None",
". c black",
"X c #11121E",
"o c #161825",
"O c #252629",
"+ c #343434",
"@ c #766F46",
"# c #B1A561",
"$ c #E9DA8A",
/* pixels */
"                                                                                                                                                                                XoX    XoX                                                                                                                                                                                                                                      ",
"                                                                                                                                                                               XoooX  XoooX                                                                                                                                                                                                                                     ",
"                                                                                                                                                                               XoooX  XoooX          .                                                                                                                                                                                                                          ",
"                                                                                                                                                 X      X                      XooooXXooooX         .O.          X      X                                                                                                                                                                                                       ",
"                                                                                                                                                XoX    XoX                     XooooooooooX         .O.         XoX    XoX                                                                                                                                                                                                      ",
"                                                                                                                                               XoooX  XoooX              .    XoooooooooooX         .O.        XoooX  XoooX         .                                                                                                                                                                                           ",
"                                                                                                                 X      X                      XoooX  XoooX             .O.   Xooooo$oooo$oX       .OO.        XoooX  XoooX        .O.                                                                                                                                                                                          ",
"                                                                                                                XoX    XoX                     XooooXXooooX             .O.   Xooooo#oooo#oX       .OO.        XooooXXooooX        .O.                              .                                                                                                                                                           ",
"                                                                                                               XoooX  XoooX                    XooooooooooX             .O.   XXXXXXXooooXXX       .O.         XooooooooooX        .O.           X      X          .O.                                                                                                                                                          ",
"                 X      X                                                                                      XoooX  XoooX               .   XoooooooooooX            .OO.   .XOOOOOXooXOOX       .O.   .... XoooooooooooX        .O.          XoX    XoX         .O.                                                                                                                                                          ",
"                XoX    XoX                                                                                     XooooXXooooX              .O.  Xooooo$oooo$oX           .OO.   .+...OOOXXOO.        .OO. .OOOO.Xooooo$oooo$oX       .O.         XoooX  XoooX        .O.                                                                                                                                                          ",
"       .       XoooX  XoooX                                                                                    XooooooooooX              .O.  Xooooo#oooo#oX           .O.    O++.OOOOOOO.         .OO..OOOOOOXooooo#oooo#oX       .O.         XoooX  XoooX        .O.           X      X                                                                                                                                       ",
"      .O.      XoooX  XoooX                                                                               .   XoooooooooooX              .O.  XXXXXXXooooXXX           .O.    OO++.......          .OOOOOOOOOOXXXXXXXooooXXX       .O.   ..    XooooXXooooX        .O.          XoX    XoX                                                                                                                       X      X       ",
"      .O.      XooooXXooooX                                                                              .O.  Xooooo$oooo$oX            .OO.  .XOOOOOXooXOOX           .OO.  .OOO+++++++.           .OOOOOOOOO.XOOOOOXooXOOX       .OO. .OO.   XooooooooooX        .O.         XoooX  XoooX         .            X      X                                                                                       XoX    XoX      ",
"      .O.      XooooooooooX                       X      X                                               .O.  Xooooo#oooo#oX           .OO.   .+...OOOXXOO.            .OOO..OOOOOOO@OOOO..         .OOOOOOOOO.+...OOOXXOO.        .OO..OOOO. XoooooooooooX        .O.         XoooX  XoooX        .O.          XoX    XoX                       X      X                                              .       XoooX  XoooX     ",
"     .OO.     XoooooooooooX            .         XoX    XoX                                              .O.  XXXXXXXooooXXX           .O.    O++.OOOOOOO.             .OOOOOOOOOOOOOOOOOOO.         ..OOOOOOOO++.OOOOOOO.         .OOOOOOOOO.Xooooo$oooo$oX       .O.   ..    XooooXXooooX        .O.         XoooX  XoooX           .         XoX    XoX                       X      X             .O.      XoooX  XoooX     ",
"    .OO.      Xooooo$oooo$oX          .O.       XoooX  XoooX                      X      X              .OO.  .XOOOOOXooXOOX           .O.    OO++.......               .OOOOOOOOOOOOOOOOOO.          .OOO.OOOOO++.......           .OOOOOOOOOXooooo#oooo#oX       .OO. .OO.   XooooooooooX        .O.         XoooX  XoooX          .O.       XoooX  XoooX           .         XoX    XoX            .O.      XooooXXooooX     ",
"    .O.       Xooooo#oooo#oX          .O.       XoooX  XoooX           .         XoX    XoX            .OO.   .+...OOOXXOO.            .OO.  .OOO+++++++.               .OOOOOOOOOOOOO.....           .OOO.OOOOOO+++++++            .OOOOOOOOOXXXXXXXooooXXX       .OO..OOOO. XoooooooooooX        .O.         XooooXXooooX          .O.       XoooX  XoooX          .O.       XoooX  XoooX           .O.      XooooooooooX     ",
"    .O.       XXXXXXXooooXXX          .O.       XooooXXooooX          .O.       XoooX  XoooX           .O.    O++.OOOOOOO.             .OOO..OOOOOOO@OOOO..              ..OOOOOOOOO..                 ... ....OOOOO@OO.             ..OOOOOOO.XOOOOOXooXOOX       .OOOOOOOOO.Xooooo$oooo$oX       .O.         XooooooooooX          .O.       XooooXXooooX          .O.       XoooX  XoooX          .OO.     XoooooooooooX     ",
"    .OO.       XOOOOOXooXOOX         .OO.       XooooooooooX          .O.       XoooX  XoooX           .O.    OO++.......              .OOOOOOOOOOOOOOOOOOO.             ..OOOOOOOO.                          .OO..OO..               .OOO.OOO.+...OOOXXOO.         .OOOOOOOOOXooooo#oooo#oX       .O.   .... XoooooooooooX         .OO.       XooooooooooX          .O.       XooooXXooooX         .OO.      Xooooo$oooo$oX    ",
"    .OOO.......+...OOOXXOO.         .OO.       XoooooooooooX          .O.       XooooXXooooX           .OO.  .OOO+++++++.               .OOOOOOOOOOOOOOOOOO.             .OOOOOOO..                            ... ..                 .OOO.OOOO++.OOOOOOO.          .OOOOOOOOOXXXXXXXooooXXX       .O.. .OOOO.Xooooo$oooo$oX       .OO.       XoooooooooooX         .OO.       XooooooooooX         .O.       Xooooo#oooo#oX    ",
"    .OOOOOOOOOO++.OOOOOOO.          .O.        Xooooo$oooo$oX        .OO.       XooooooooooX           .OOO..OOOOOOO@OOOO..             .OOOOOOOOOOOOO.....              .OO.OOO.                                                      ... .OOOO++.......            ..OOOOOOO.XOOOOOXooXOOX       .OO..OOOOOOXooooo#oooo#oX       .O.        Xooooo$oooo$oX       .OO.       XoooooooooooX         .O.       XXXXXXXooooXXX    ",
"     .OOOOOOOOOO++.......           .O.        Xooooo#oooo#oX       .OO.       XoooooooooooX           .OOOOOOOOOOOOOOOOOOO.             ..OOOOOOOOO..                  .OOO.OO.                                                           .OOOOO+++++++              .OOO.OOO.+...OOOXXOO.        .OOOOOOOOOOXXXXXXXooooXXX       .O.   .... Xooooo#oooo#oX       .O.        Xooooo$oooo$oX        .OO.       XOOOOOXooXOOX    ",
"     .OOOOOOOOOOO+++++++            .OO. ....  XXXXXXXooooXXX       .O.        Xooooo$oooo$oX           .OOOOOOOOOOOOOOOOOO.             ..OOOOOOOO.                    .OO.OO.                                                             ...OOOOO@OO.              .OOO.OOOO++.OOOOOOO.          .OOOOOOOOO.XOOOOOXooXOOX       .OO. .OOOO.XXXXXXXooooXXX       .O.   .... Xooooo#oooo#oX        .OOO.......+...OOOXXOO.     ",
"      ..OOOOOOOOOOOO@OO.            .OOO.OOOO.  XOOOOOXooXOOX       .O.        Xooooo#oooo#oX           .OOOOOOOOOOOOO.....              .OOOOOOO..                      .....                                                                .OO..OO..                ... .OOOO++.......           .OOOOOOOOO.+...OOOXXOO.        .OO..OOOOOO.XOOOOOXooXOOX       .OO. .OOOO.XXXXXXXooooXXX        .OOOOOOOOOO++.OOOOOOO.      ",
"       .OOOOOOOOOOOOOOO.            .OOOOOOOOO..+...OOOXXOO.        .OO.       XXXXXXXooooXXX            ..OOOOOOOOO..                   .OO.OOO.                                                                                              ... ..                      .OOOOO+++++++             ..OOOOOOOO++.OOOOOOO.         .OOOOOOOOOO.+...OOOXXOO.        .OO..OOOOOO.XOOOOOXooXOOX         .OOOOOOOOOO++.......       ",
"       .OOOOOOOOOOOOOOO.             .OOOOOOOOOO++.OOOOOOO.         .OOO.....   XOOOOOXooXOOX            ..OOOOOOOO.                    .OOO.OO.                                                                                                                            ...OOOOO@OO.              .OOO.OOOOO++.......           .OOOOOOOOOO++.OOOOOOO.         .OOOOOOOOOO.+...OOOXXOO.          .OOOOOOOOOOO+++++++        ",
"       .OOOOOOOOOOOOOO.              .OOOOOOOOOOO++.......          .OOOOOOOO...+...OOOXXOO.             .OOOOOOO..                     .OO.OO.                                                                                                                               .OO..OO..               .OOO.OOOOOO+++++++            .OOOOOOOOOOO++.......           .OOOOOOOOOO++.OOOOOOO.            ..OOOOOOOOOOOO@OO.        ",
"       .OOO.OOO.OO.OOO.               ..OOOOOOOOOO+++++++            .OOOOOOOOOO++.OOOOOOO.              .OO.OOO.                        .....                                                                                                                                 ... ..                  ... ....OOOOO@OO.             ..OOOOOOOOOO+++++++            .OOOOOOOOOOO++.......              .OOOOOOOOOOOOOOO.        ",
"       .OOO.OOO.OO.OOO.                .OOO.OOOOOOOOO@OO.            .OOOOOOOOOOO++.......              .OOO.OO.                                                                                                                                                                                              .OO..OO..               .OOO.OOO.OOOOO@OO.             ..OOOOOOOOOO+++++++               .OOO.OOO.OO.OOO.         ",
"       .OO..OO..OO..OO.                .OOO.OOO.OO.OOO..               .OOOOOOOOOO+++++++               .OO.OO.                                                                                                                                                                                                ... ..                 .OOO.OOO OO.OOO..               .OOO.OOO.OOOOO@OO.               .OO..OO..OO..OO.         ",
"        ... ... ... ..                  ... ... ... ..                 .OOO.OOOOOOOOO@OO.                .....                                                                                                                                                                                                                         ... ... ... ..                  ... ... ... ....                 ... ... ... ..          "
};
