/* XPM */
static char *_ee31644e9f4412ed12ac88ac6a75892u3JERqz6ck967qRB[] = {
/* columns rows colors chars-per-pixel */
"158 32 21 1 ",
"  c None",
". c black",
"X c #534A39",
"o c #574E3D",
"O c #5B5242",
"+ c #5B5342",
"@ c #5D5545",
"# c #654B4B",
"$ c #605848",
"% c #615949",
"& c #62584A",
"* c #625A4A",
"= c #686050",
"- c #726B5C",
"; c #7C715A",
": c #6C6C6C",
"> c #80745D",
", c #877B63",
"< c #8F8269",
"1 c #95886E",
"2 c #CABA99",
/* pixels */
"                                                                                                                                                              ",
"                                                                                                                                                              ",
"                                                                                                                                                              ",
"                                                                                                                                                              ",
"                                                                                                                                                              ",
"                                                                                                                                                              ",
"                                                                                                                                                              ",
"                                                                                                                                                              ",
"                                                                                                                                                              ",
"                                                                                                                                                              ",
"                                                                                                                                                              ",
"                                                                                                                                                              ",
"                                                                                                                                                              ",
"                                                                                                                                                              ",
"                                                                                                                                                              ",
"                        XX                                        XX                                        XX                                        XX      ",
"                       X2;X                                      X2;X                                      X2;X                                      X2;X     ",
"                   XXX X>,X                                  XXX X>,X                                  XXX X>,X                                  XXX X>,X     ",
"                  X222XXXXX                                 X222XXXXX                                 X222XXXXX                                 X222XXXXX     ",
"            XXXXXXX221XXXXXX                          XXXXXXX221XXXXXX                          XXXXXXX221XXXXXX                          XXXXXXX221XXXXXX    ",
"          XXXXXXXXX2<XXXXXXXX                       XXXXXXXXX2<XXXXXXXX                       XXXXXXXXX2<XXXXXXXX                       XXXXXXXXX2<XXXXXXXX   ",
"         XXXXXXXXXXXXXXXX:.XXX                     XXXXXXXXXXXXXXXX:.XXX                     XXXXXXXXXXXXXXXX:.XXX                     XXXXXXXXXXXXXXXX:.XXX  ",
"         XXXXXXXXXXXXXXXX..XXXX           XX       XXXXXXXXXXXXXXXX..XXXX                    XXXXXXXXXXXXXXXX..XXXX                    XXXXXXXXXXXXXXXX..XXXX ",
"       XXXXXXXXXXXXXXXXXXXXXXXX#            X     XXXXXXXXXXXXXXXXXXXXXXX#               XXXXXXXXXXXXXXXXXXXXXXXXXX#                XXXXXXXXXXXXXXXXXXXXXXXXX#",
"XXX  XX XXXXXXXXXXXXXXXXXXXXXXX              XXXXXXXXXXXXXXXXXXXXXXXXXXXX               X   XXXXXXXXXXXXXXXXXXXXXXX               XX  XXXXXXXXXXXXXXXXXXXXXXX ",
"   XXX   XX=-----------OX                          XX=-----------OX                 XXXX     XX=-----------OX                 XXXX     XX=-----------OX       ",
"          oO%%%%%%%%%%%@                            oO%%%%%%%%%%%@                            oO%%%%%%%%%%%@                            oO%%%%%%%%%%%@        ",
"               #    #                                      #    #                                  #    #                                   #    #            ",
"              # #  # #                                    # #  # #                                # #  # #                                 # #  # #           ",
"                                                                                                                                                              ",
"                                                                                                                                                              ",
"                                                                                                                                                              "
};
