/* XPM */
static char *swall[] = {
/* columns rows colors chars-per-pixel */
"32 32 2 1",
"  c #808080",
". c #C0C0C0",
/* pixels */
"  ..........  ..........  ......",
"  ..........  ..........  ......",
"  ..........  ..........  ......",
"  ..........  ..........  ......",
"  ..........  ..........  ......",
"  ..........  ..........  ......",
"                                ",
"                                ",
"........  ..........  ..........",
"........  ..........  ..........",
"........  ..........  ..........",
"........  ..........  ..........",
"........  ..........  ..........",
"........  ..........  ..........",
"                                ",
"                                ",
"  ..........  ..........  ......",
"  ..........  ..........  ......",
"  ..........  ..........  ......",
"  ..........  ..........  ......",
"  ..........  ..........  ......",
"  ..........  ..........  ......",
"                                ",
"                                ",
"........  ..........  ..........",
"........  ..........  ..........",
"........  ..........  ..........",
"........  ..........  ..........",
"........  ..........  ..........",
"........  ..........  ..........",
"                                ",
"                                "
};
